<?xml version="1.0" standalone="no"?>
<!DOCTYPE svg PUBLIC "-//W3C//DTD SVG 20010904//EN"
 "http://www.w3.org/TR/2001/REC-SVG-20010904/DTD/svg10.dtd">
<svg version="1.0" xmlns="http://www.w3.org/2000/svg"
 width="200.000000pt" height="200.000000pt" viewBox="0 0 200.000000 200.000000"
 preserveAspectRatio="xMidYMid meet">

<g transform="translate(0.000000,200.000000) scale(0.100000,-0.100000)"
fill="#000000" stroke="none">
<path d="M170 1935 c35 -36 69 -65 75 -65 6 0 40 29 75 65 l64 65 -139 0 -139
0 64 -65z"/>
<path d="M710 1935 c35 -36 69 -65 75 -65 11 1 49 34 104 93 l35 37 -139 0
-139 0 64 -65z"/>
<path d="M1253 1935 c36 -36 69 -65 74 -65 5 0 38 29 73 65 l64 65 -137 0
-138 0 64 -65z"/>
<path d="M1740 1995 c0 -7 122 -125 129 -125 4 0 36 29 71 65 l64 65 -132 0
c-73 0 -132 -2 -132 -5z"/>
<path d="M0 1723 l0 -107 50 49 c42 41 50 55 50 85 0 44 -33 80 -73 80 l-27 0
0 -107z"/>
<path d="M382 1807 c-33 -35 -29 -84 10 -124 l32 -33 -38 -35 c-24 -22 -49
-35 -65 -35 -15 0 -37 -9 -49 -21 l-22 -20 -27 20 c-36 29 -67 26 -97 -10 -40
-47 -34 -72 30 -140 l57 -59 -16 -57 c-9 -32 -22 -101 -28 -153 -10 -81 -16
-100 -40 -128 -36 -40 -36 -68 -4 -112 34 -46 34 -117 0 -180 -13 -25 -24 -38
-25 -29 0 24 -43 59 -73 59 l-27 0 0 -105 c0 -58 2 -105 4 -105 3 0 12 7 20
16 22 21 20 1 -4 -46 -16 -31 -20 -58 -19 -127 l0 -88 25 84 c28 94 72 202
110 271 17 31 23 37 20 20 -2 -14 -10 -61 -17 -105 -6 -44 -16 -88 -21 -98 -5
-10 -11 -79 -14 -154 -2 -75 -6 -139 -9 -141 -2 -2 -14 5 -26 17 -13 12 -33
21 -46 21 -23 0 -23 -2 -23 -107 l0 -107 49 48 49 49 7 -47 c7 -43 9 -46 37
-46 23 0 29 4 24 16 -12 32 -29 241 -22 278 10 52 24 36 41 -50 8 -38 27 -108
41 -156 l27 -88 112 0 113 0 6 31 c12 60 9 70 -19 59 -22 -8 -25 -7 -25 13 1
43 38 105 79 132 l40 27 103 -12 c109 -12 239 -37 200 -39 -34 -1 -62 -19 -62
-40 0 -29 39 -133 57 -153 13 -14 31 -18 88 -18 l71 0 21 49 c17 42 24 49 42
44 15 -4 21 -1 21 11 0 21 9 20 34 -3 26 -24 147 -93 153 -87 15 14 14 88 -1
110 -9 14 -16 36 -16 48 0 25 -18 80 -38 116 -16 27 -32 28 -82 2 l-39 -20 40
82 c33 70 45 86 78 102 22 10 44 29 50 42 12 27 57 42 80 27 9 -6 17 -24 19
-42 4 -39 -23 -135 -50 -179 -15 -25 -19 -42 -14 -75 3 -23 9 -84 12 -135 l6
-92 334 0 334 0 0 85 c0 70 -3 83 -15 79 -8 -4 -33 12 -60 38 l-46 43 61 62
c55 57 60 66 60 106 0 30 -6 49 -18 60 -24 22 -70 22 -94 0 -17 -15 -19 -15
-36 0 -27 25 -72 21 -103 -9 l-26 -25 -37 55 c-20 30 -36 58 -36 62 0 4 16 20
35 37 29 25 35 36 35 70 0 23 -7 48 -16 59 -14 14 -14 18 -3 21 8 2 44 13 81
25 37 12 74 22 83 22 10 0 44 27 76 60 53 55 59 65 59 103 0 51 -7 62 -47 79
l-32 14 40 61 c29 46 39 73 39 103 0 25 -4 39 -10 35 -6 -3 -10 -21 -10 -40 0
-26 -12 -48 -50 -94 -56 -67 -82 -85 -110 -76 -28 9 -90 -28 -90 -53 0 -25
-126 -30 -169 -7 -48 25 -45 41 8 41 27 0 63 9 86 21 73 38 155 144 155 200 0
10 -11 -4 -24 -32 -12 -27 -41 -67 -64 -87 -42 -38 -100 -73 -109 -65 -2 3 21
30 51 60 49 48 56 60 56 94 0 72 -68 107 -117 61 l-23 -21 -19 21 c-42 49
-121 11 -121 -58 0 -29 10 -45 62 -97 34 -34 59 -65 56 -68 -3 -4 -22 0 -41 9
-46 19 -66 57 -123 234 l-23 73 50 50 c41 41 49 55 49 85 0 28 -7 43 -27 60
-35 30 -60 30 -91 2 l-24 -23 -40 45 c-22 25 -56 61 -74 81 -28 29 -34 43 -34
80 0 76 -66 115 -115 69 -21 -20 -21 -20 -43 0 -27 25 -70 26 -96 1 -20 -18
-25 -18 -77 -5 -50 13 -62 12 -130 -5 l-74 -19 -26 24 c-29 27 -83 33 -93 9
-3 -8 -12 -15 -20 -15 -8 0 -21 7 -30 15 -22 23 -69 19 -94 -8z m274 -529 c-8
-54 -14 -68 -27 -68 -10 0 -20 4 -24 10 -5 9 53 136 59 129 2 -2 -2 -34 -8
-71z m174 -73 c0 -46 -3 -53 -16 -48 -13 5 -15 14 -10 46 12 76 26 77 26 2z
m-199 -74 c3 -3 11 -37 18 -74 11 -67 56 -193 71 -202 4 -2 5 29 2 70 -2 40
-1 95 3 122 l8 48 21 -75 21 -75 3 59 3 59 36 -34 c24 -23 37 -30 40 -21 3 8
24 -5 58 -37 30 -28 58 -51 63 -51 4 0 -7 31 -26 69 -31 63 -35 91 -12 91 5 0
30 -29 56 -65 50 -68 61 -76 45 -31 -8 19 -7 26 1 26 7 0 5 5 -4 13 -16 12
-38 68 -38 96 0 9 16 -9 36 -38 34 -51 117 -135 151 -154 13 -8 13 -5 3 15 -7
12 6 3 29 -22 22 -25 40 -48 41 -51 0 -4 42 -42 93 -84 82 -67 93 -80 89 -103
-5 -25 -5 -25 -41 17 l-37 43 -18 -61 c-10 -34 -31 -80 -47 -104 -16 -23 -29
-49 -29 -58 0 -12 -11 -18 -37 -22 -53 -7 -228 -66 -273 -92 -21 -12 -22 -15
-6 -15 15 0 16 -3 6 -15 -15 -18 -7 -19 20 -3 10 7 21 10 24 7 10 -9 53 -169
48 -174 -13 -13 -37 -2 -79 35 -25 22 -65 52 -89 67 -52 33 -52 49 2 45 36 -2
37 -1 21 12 -18 14 -18 14 0 19 10 3 4 5 -14 6 -17 0 -34 5 -37 9 -3 5 -48 12
-101 15 -161 11 -306 73 -358 153 -12 18 -28 34 -35 34 -28 0 -74 33 -102 72
-33 46 -39 100 -15 132 15 19 16 19 56 -20 38 -35 41 -37 35 -14 -15 56 -18
140 -6 191 19 83 26 85 22 7 -5 -76 13 -182 29 -173 8 6 6 27 -8 79 -3 12 -1
16 6 12 6 -4 11 -14 11 -23 0 -19 30 -83 39 -83 4 0 5 16 3 35 -3 25 0 36 12
41 9 3 13 11 9 17 -4 6 0 8 11 4 10 -4 24 1 35 12 18 18 81 34 81 21 0 -4 -9
-15 -20 -25 -47 -42 -49 -167 -3 -212 31 -32 82 -29 100 7 17 34 16 108 -2
160 -19 53 -19 53 4 40 31 -16 31 -12 3 31 -26 39 -28 40 -77 38 -50 -3 -50
-3 -53 29 -3 31 -2 32 40 34 l43 1 -41 4 -41 4 8 47 c12 77 17 84 53 76 17 -3
34 -9 37 -13z m-184 -213 c-3 -8 -6 -5 -6 6 -1 11 2 17 5 13 3 -3 4 -12 1 -19z
m1293 -8 c20 -12 9 -21 -18 -13 -12 3 -19 9 -16 14 7 11 15 11 34 -1z m-362
-65 c-3 -3 -9 2 -12 12 -6 14 -5 15 5 6 7 -7 10 -15 7 -18z m-758 -31 c14 -37
12 -66 -7 -93 -15 -23 -17 -23 -30 -6 -24 34 -11 125 18 125 5 0 14 -12 19
-26z m845 -74 c3 -5 2 -10 -4 -10 -5 0 -13 5 -16 10 -3 6 -2 10 4 10 5 0 13
-4 16 -10z m135 -15 c-7 -8 -16 -15 -20 -15 -4 0 -10 7 -14 15 -4 11 2 15 21
15 21 0 24 -2 13 -15z m127 -371 c-1 -1 -35 29 -75 68 l-72 70 22 18 c21 17
22 16 75 -68 29 -47 52 -86 50 -88z m-602 -5 c-19 -40 -35 -79 -35 -86 0 -6
-4 -14 -10 -18 -20 -12 34 137 63 173 23 28 16 1 -18 -69z m-347 -80 c53 -12
113 -30 132 -41 26 -14 29 -17 10 -13 -22 6 -82 19 -290 63 l-45 10 48 1 c26
0 91 -8 145 -20z"/>
<path d="M1102 860 c-62 -22 -112 -56 -112 -75 0 -10 10 -7 36 10 46 31 106
33 152 5 39 -24 61 -25 88 -5 19 14 19 14 0 15 -11 0 -43 8 -73 17 -50 16 -52
18 -36 35 20 22 13 22 -55 -2z"/>
<path d="M1462 1807 c-14 -15 -22 -36 -22 -59 0 -30 9 -44 70 -102 80 -77 67
-78 157 13 44 46 53 60 53 91 0 69 -69 103 -117 58 l-23 -21 -19 21 c-25 29
-71 29 -99 -1z"/>
<path d="M1987 1783 c-10 -10 -8 -56 3 -73 7 -11 10 -2 10 33 0 48 -1 52 -13
40z"/>
<path d="M1758 1556 c-21 -18 -28 -32 -28 -60 0 -33 8 -45 65 -102 36 -35 70
-64 76 -64 5 0 36 27 69 61 55 56 60 65 60 105 0 32 -6 49 -22 64 -28 25 -48
25 -82 -1 l-26 -20 -26 20 c-34 27 -53 26 -86 -3z"/>
<path d="M0 1183 l0 -106 22 19 c70 62 78 73 78 112 0 46 -32 82 -73 82 l-27
0 0 -107z"/>
<path d="M1987 703 c-10 -10 -8 -56 3 -73 7 -11 10 -2 10 33 0 48 -1 52 -13
40z"/>
<path d="M656 38 c-9 -37 -8 -38 42 -38 l47 1 -35 29 c-41 36 -46 37 -54 8z"/>
</g>
</svg>
