<?xml version="1.0" standalone="no"?>
<!DOCTYPE svg PUBLIC "-//W3C//DTD SVG 20010904//EN"
 "http://www.w3.org/TR/2001/REC-SVG-20010904/DTD/svg10.dtd">
<svg version="1.0" xmlns="http://www.w3.org/2000/svg"
 width="32.000000pt" height="32.000000pt" viewBox="0 0 32.000000 32.000000"
 preserveAspectRatio="xMidYMid meet">

<g transform="translate(0.000000,32.000000) scale(0.100000,-0.100000)"
fill="#000000" stroke="none">
<path d="M205 281 c-22 -10 -51 -30 -64 -45 -15 -16 -35 -26 -52 -26 -17 0
-34 -8 -43 -22 -22 -31 -20 -38 12 -38 37 0 92 -56 92 -93 0 -31 7 -33 38 -11
14 9 22 26 22 43 0 17 10 37 26 52 32 29 63 94 64 132 0 23 -4 27 -27 27 -16
0 -46 -9 -68 -19z m25 -65 c0 -20 -19 -31 -32 -18 -6 6 -7 15 -4 21 10 16 36
13 36 -3z"/>
<path d="M55 80 c-9 -27 -2 -34 25 -25 24 8 23 38 -2 43 -10 2 -19 -6 -23 -18z"/>
</g>
</svg>
